<?xml version="1.0" encoding="UTF-8"?>
<svg width="25px" height="25px" viewBox="0 0 25 25" version="1.1" xmlns="http://www.w3.org/2000/svg" xmlns:xlink="http://www.w3.org/1999/xlink">
    <!-- Generator: Sketch 51.1 (57501) - http://www.bohemiancoding.com/sketch -->
    <title>logo/mark/lined/brand</title>
    <desc>Created with Sketch.</desc>
    <defs></defs>
    <g id="logo/mark/lined/brand" stroke="none" stroke-width="1" fill="none" fill-rule="evenodd">
        <path d="M15.9550003,19.0010067 C16.2257059,18.9888879 16.500397,19.0861834 16.7071068,19.2928932 L19.7071068,22.2928932 C20.0976311,22.6834175 20.0976311,23.3165825 19.7071068,23.7071068 C19.3165825,24.0976311 18.6834175,24.0976311 18.2928932,23.7071068 L15.5857864,21 L12.5,21 C4.66930876,21 1,18.7837683 1,12.5 C1,6.21623166 4.66930876,4 12.5,4 C20.3306912,4 24,6.21623166 24,12.5 C24,15.6439542 22.9961621,17.8548595 20.9761875,19.2223296 C20.5188461,19.5319378 19.8971105,19.4121764 19.5875023,18.9548349 C19.2778941,18.4974935 19.3976555,17.8757579 19.854997,17.5661497 C21.283056,16.599391 22,15.0203559 22,12.5 C22,7.5889154 19.3693088,6 12.5,6 C5.63069124,6 3,7.5889154 3,12.5 C3,17.4110846 5.63069124,19 12.5,19 L15.909724,19 C15.9248974,19 15.9399919,19.0003379 15.9550003,19.0010067 Z M17.5,14 C16.6715729,14 16,13.3284271 16,12.5 C16,11.6715729 16.6715729,11 17.5,11 C18.3284271,11 19,11.6715729 19,12.5 C19,13.3284271 18.3284271,14 17.5,14 Z M12.5,14 C11.6715729,14 11,13.3284271 11,12.5 C11,11.6715729 11.6715729,11 12.5,11 C13.3284271,11 14,11.6715729 14,12.5 C14,13.3284271 13.3284271,14 12.5,14 Z M7.5,14 C6.67157288,14 6,13.3284271 6,12.5 C6,11.6715729 6.67157288,11 7.5,11 C8.32842712,11 9,11.6715729 9,12.5 C9,13.3284271 8.32842712,14 7.5,14 Z" id="lined" fill="#16966A" fill-rule="nonzero"></path>
        <path d="M17.5,14 C16.6715729,14 16,13.3284271 16,12.5 C16,11.6715729 16.6715729,11 17.5,11 C18.3284271,11 19,11.6715729 19,12.5 C19,13.3284271 18.3284271,14 17.5,14 Z" id="3" fill="#16966A"></path>
        <path d="M12.5,14 C11.6715729,14 11,13.3284271 11,12.5 C11,11.6715729 11.6715729,11 12.5,11 C13.3284271,11 14,11.6715729 14,12.5 C14,13.3284271 13.3284271,14 12.5,14 Z" id="2" fill="#16966A"></path>
        <path d="M7.5,14 C6.67157288,14 6,13.3284271 6,12.5 C6,11.6715729 6.67157288,11 7.5,11 C8.32842712,11 9,11.6715729 9,12.5 C9,13.3284271 8.32842712,14 7.5,14 Z" id="1" fill="#16966A"></path>
    </g>
</svg>