<?xml version="1.0" standalone="no"?>
<!DOCTYPE svg PUBLIC "-//W3C//DTD SVG 20010904//EN"
 "http://www.w3.org/TR/2001/REC-SVG-20010904/DTD/svg10.dtd">
<svg version="1.0" xmlns="http://www.w3.org/2000/svg"
 width="144.000000pt" height="144.000000pt" viewBox="0 0 144.000000 144.000000"
 preserveAspectRatio="xMidYMid meet">
<metadata>
Created by potrace 1.11, written by Peter Selinger 2001-2013
</metadata>
<g transform="translate(0.000000,144.000000) scale(0.100000,-0.100000)"
fill="#000000" stroke="none">
<path d="M495 1200 c-22 -5 -56 -11 -77 -14 -141 -22 -269 -122 -309 -241 -20
-60 -20 -63 -24 -165 -6 -163 24 -260 104 -339 104 -104 241 -140 537 -141
l130 0 82 -81 c68 -66 87 -80 109 -77 35 4 57 42 41 72 -6 12 -50 60 -97 107
l-86 86 -170 1 c-169 1 -189 2 -295 23 -112 23 -185 74 -224 158 -18 39 -21
64 -21 166 0 101 3 127 21 165 35 77 116 140 197 155 12 3 36 8 52 11 52 12
87 14 215 15 185 2 288 -14 372 -56 97 -49 137 -120 145 -258 8 -130 -14 -203
-84 -279 -29 -32 -53 -63 -53 -68 0 -6 11 -22 24 -35 31 -31 55 -24 111 31 82
82 115 183 110 337 -7 235 -102 356 -327 413 -70 18 -411 28 -483 14z"/>
<path d="M389 823 c-33 -23 -39 -33 -39 -70 0 -70 84 -103 134 -53 26 26 26
84 1 109 -30 28 -67 33 -96 14z"/>
<path d="M663 829 c-12 -4 -29 -22 -38 -40 -14 -26 -15 -36 -4 -61 27 -66 118
-67 145 -2 22 53 -7 98 -71 110 -5 1 -20 -2 -32 -7z"/>
<path d="M933 829 c-73 -27 -60 -140 17 -152 51 -8 90 30 90 88 0 21 -32 63
-49 66 -3 0 -13 2 -21 3 -8 2 -25 0 -37 -5z"/>
</g>
</svg>
